<?xml version="1.0" encoding="UTF-8"?>
<svg width="136px" height="46px" viewBox="0 0 136 46" version="1.1" xmlns="http://www.w3.org/2000/svg" xmlns:xlink="http://www.w3.org/1999/xlink">
    <!-- Generator: Sketch 48.2 (47327) - http://www.bohemiancoding.com/sketch -->
    <title>logo</title>
    <desc>Created with Sketch.</desc>
    <defs></defs>
    <g id="Navigation-&amp;-Footers" stroke="none" stroke-width="1" fill="none" fill-rule="evenodd" transform="translate(-165.000000, -1211.000000)">
        <g id="Nav-Top-Menu" transform="translate(0.000000, 1155.000000)">
            <g id="nav-menu-copy" transform="translate(0.000000, 42.000000)">
                <g id="logo" transform="translate(165.000000, 14.000000)">
                    <g id="symbol">
                        <rect id="base" fill="#222222" x="0" y="0" width="46" height="46" rx="8"></rect>
                        <path d="M8.904,17.74 C8.904,16.7879952 9.16999734,15.9013374 9.702,15.08 C10.2340027,14.2586626 11.0273281,13.5960025 12.082,13.092 C13.1366719,12.5879975 14.4106592,12.336 15.904,12.336 C17.3973408,12.336 18.6713281,12.5879975 19.726,13.092 C20.7806719,13.5960025 21.5739973,14.2586626 22.106,15.08 C22.6380027,15.9013374 22.904,16.7879952 22.904,17.74 C22.904,18.8226721 22.6426693,19.7419962 22.12,20.498 C21.5973307,21.2540038 20.8133386,21.8186648 19.768,22.192 C20.9440059,22.6400022 21.8446635,23.2886624 22.47,24.138 C23.0953365,24.9873376 23.408,26.0186606 23.408,27.232 C23.408,28.5386732 23.0813366,29.6633286 22.428,30.606 C21.7746634,31.5486714 20.883339,32.2626642 19.754,32.748 C18.624661,33.2333358 17.3413405,33.476 15.904,33.476 C14.4666595,33.476 13.183339,33.2333358 12.054,32.748 C10.924661,32.2626642 10.0380032,31.5486714 9.394,30.606 C8.74999678,29.6633286 8.428,28.5386732 8.428,27.232 C8.428,26.0186606 8.74066354,24.9873376 9.366,24.138 C9.99133646,23.2886624 10.8919941,22.6400022 12.068,22.192 C11.0226614,21.8186648 10.2340027,21.2493372 9.702,20.484 C9.16999734,19.7186628 8.904,18.8040053 8.904,17.74 Z M12.796,18.384 C12.796,19.2800045 13.0759972,19.9706642 13.636,20.456 C14.1960028,20.9413358 14.9519952,21.184 15.904,21.184 C16.8746715,21.184 17.6399972,20.9413358 18.2,20.456 C18.7600028,19.9706642 19.04,19.2800045 19.04,18.384 C19.04,17.4879955 18.7553362,16.7926691 18.186,16.298 C17.6166638,15.8033309 16.8560048,15.556 15.904,15.556 C14.970662,15.556 14.2193362,15.8033309 13.65,16.298 C13.0806638,16.7926691 12.796,17.4879955 12.796,18.384 Z M12.264,27.008 C12.264,27.9973383 12.5906634,28.7813304 13.244,29.36 C13.8973366,29.9386696 14.7839944,30.228 15.904,30.228 C17.0240056,30.228 17.91533,29.9386696 18.578,29.36 C19.24067,28.7813304 19.572,27.9973383 19.572,27.008 C19.572,25.999995 19.2313367,25.2300027 18.55,24.698 C17.8686633,24.1659973 16.9866721,23.9 15.904,23.9 C14.8399947,23.9 13.9673367,24.1659973 13.286,24.698 C12.6046633,25.2300027 12.264,25.999995 12.264,27.008 Z M27.5976847,27.12 C27.8963529,29.061343 28.9043428,30.032 30.6216847,30.032 C31.9283579,30.032 32.8710152,29.4580057 33.4496847,28.31 C34.0283543,27.1619943 34.2803518,25.3653456 34.2056847,22.92 C33.9070166,23.8160045 33.3236891,24.5299973 32.4556847,25.062 C31.5876804,25.5940027 30.5750239,25.86 29.4176847,25.86 C27.5136752,25.86 26.0156902,25.2860057 24.9236847,24.138 C23.8316793,22.9899943 23.2856847,21.3613439 23.2856847,19.252 C23.2856847,17.9639936 23.5470155,16.8113384 24.0696847,15.794 C24.592354,14.7766616 25.3716796,13.9786696 26.4076847,13.4 C27.4436899,12.8213304 28.6990107,12.532 30.1736847,12.532 C33.0483658,12.532 35.0270127,13.4046579 36.1096847,15.15 C37.1923568,16.8953421 37.7336847,19.3173178 37.7336847,22.416 C37.7336847,25.9440176 37.1876902,28.6226575 36.0956847,30.452 C35.0036793,32.2813425 33.1790309,33.196 30.6216847,33.196 C29.2590113,33.196 28.0876896,32.925336 27.1076847,32.384 C26.1276798,31.842664 25.3716874,31.1100046 24.8396847,30.186 C24.3076821,29.2619954 23.9950185,28.2400056 23.9016847,27.12 L27.5976847,27.12 Z M33.8696847,19.532 C33.8696847,18.4866614 33.5663544,17.6233367 32.9596847,16.942 C32.353015,16.2606633 31.4616906,15.92 30.2856847,15.92 C29.2776797,15.92 28.4750211,16.2186637 27.8776847,16.816 C27.2803484,17.4133363 26.9816847,18.2439947 26.9816847,19.308 C26.9816847,20.4280056 27.285015,21.2913303 27.8916847,21.898 C28.4983544,22.5046697 29.3150129,22.808 30.3416847,22.808 C31.2936895,22.808 32.1196812,22.5233362 32.8196847,21.954 C33.5196882,21.3846638 33.8696847,20.5773386 33.8696847,19.532 Z" id="89" fill="#FFFFFF"></path>
                    </g>
                    <path d="M56.69,19.308 L56.69,22.602 L61.19,22.602 L61.19,24.546 L56.69,24.546 L56.69,27.966 L61.73,27.966 L61.73,30 L54.152,30 L54.152,17.292 L61.73,17.292 L61.73,19.308 L56.69,19.308 Z M65.94,16.68 L65.94,30 L63.402,30 L63.402,16.68 L65.94,16.68 Z M77.422,24.636 C77.422,24.8880013 77.3920003,25.1759984 77.332,25.5 L70.024,25.5 C70.0600002,26.3880044 70.2999978,27.0419979 70.744,27.462 C71.1880022,27.8820021 71.7399967,28.092 72.4,28.092 C72.9880029,28.092 73.476998,27.9480014 73.867,27.66 C74.2570019,27.3719986 74.5059995,26.9820025 74.614,26.49 L77.296,26.49 C77.1639993,27.1860035 76.8820022,27.8099972 76.45,28.362 C76.0179978,28.9140028 75.4630034,29.3459984 74.785,29.658 C74.1069966,29.9700016 73.3540041,30.126 72.526,30.126 C71.5539951,30.126 70.6900038,29.9190021 69.934,29.505 C69.1779962,29.0909979 68.5900021,28.5000038 68.17,27.732 C67.7499979,26.9639962 67.54,26.0580052 67.54,25.014 C67.54,23.9699948 67.7499979,23.0610039 68.17,22.287 C68.5900021,21.5129961 69.1779962,20.922002 69.934,20.514 C70.6900038,20.105998 71.5539951,19.902 72.526,19.902 C73.5100049,19.902 74.3709963,20.105998 75.109,20.514 C75.8470037,20.922002 76.416998,21.4829964 76.819,22.197 C77.221002,22.9110036 77.422,23.7239954 77.422,24.636 Z M74.866,24.384 C74.9020002,23.5679959 74.6890023,22.9500021 74.227,22.53 C73.7649977,22.1099979 73.1980034,21.9 72.526,21.9 C71.8419966,21.9 71.2660023,22.1099979 70.798,22.53 C70.3299977,22.9500021 70.0720002,23.5679959 70.024,24.384 L74.866,24.384 Z M91.712,19.884 C92.9240061,19.884 93.8809965,20.2589962 94.583,21.009 C95.2850035,21.7590037 95.636,22.8239931 95.636,24.204 L95.636,30 L93.116,30 L93.116,24.492 C93.116,23.7239962 92.9210019,23.1330021 92.531,22.719 C92.140998,22.3049979 91.6040034,22.098 90.92,22.098 C90.2119965,22.098 89.6480021,22.3199978 89.228,22.764 C88.8079979,23.2080022 88.598,23.8559957 88.598,24.708 L88.598,30 L86.078,30 L86.078,24.492 C86.078,23.7239962 85.8830019,23.1330021 85.493,22.719 C85.102998,22.3049979 84.5660034,22.098 83.882,22.098 C83.1739965,22.098 82.6100021,22.3199978 82.19,22.764 C81.7699979,23.2080022 81.56,23.8559957 81.56,24.708 L81.56,30 L79.022,30 L79.022,20.028 L81.56,20.028 L81.56,21.918 C81.8240013,21.2699968 82.2409971,20.7690018 82.811,20.415 C83.3810028,20.0609982 84.0439962,19.884 84.8,19.884 C85.604004,19.884 86.302997,20.0759981 86.897,20.46 C87.491003,20.8440019 87.9379985,21.3959964 88.238,22.116 C88.5500016,21.4319966 89.0149969,20.889002 89.633,20.487 C90.2510031,20.084998 90.9439962,19.884 91.712,19.884 Z M107.046,24.636 C107.046,24.8880013 107.016,25.1759984 106.956,25.5 L99.648,25.5 C99.6840002,26.3880044 99.9239978,27.0419979 100.368,27.462 C100.812002,27.8820021 101.363997,28.092 102.024,28.092 C102.612003,28.092 103.100998,27.9480014 103.491,27.66 C103.881002,27.3719986 104.129999,26.9820025 104.238,26.49 L106.92,26.49 C106.787999,27.1860035 106.506002,27.8099972 106.074,28.362 C105.641998,28.9140028 105.087003,29.3459984 104.409,29.658 C103.730997,29.9700016 102.978004,30.126 102.15,30.126 C101.177995,30.126 100.314004,29.9190021 99.558,29.505 C98.8019962,29.0909979 98.2140021,28.5000038 97.794,27.732 C97.3739979,26.9639962 97.164,26.0580052 97.164,25.014 C97.164,23.9699948 97.3739979,23.0610039 97.794,22.287 C98.2140021,21.5129961 98.8019962,20.922002 99.558,20.514 C100.314004,20.105998 101.177995,19.902 102.15,19.902 C103.134005,19.902 103.994996,20.105998 104.733,20.514 C105.471004,20.922002 106.040998,21.4829964 106.443,22.197 C106.845002,22.9110036 107.046,23.7239954 107.046,24.636 Z M104.49,24.384 C104.526,23.5679959 104.313002,22.9500021 103.851,22.53 C103.388998,22.1099979 102.822003,21.9 102.15,21.9 C101.465997,21.9 100.890002,22.1099979 100.422,22.53 C99.9539976,22.9500021 99.6960002,23.5679959 99.648,24.384 L104.49,24.384 Z M114.586,19.884 C115.738006,19.884 116.655997,20.2619962 117.34,21.018 C118.024003,21.7740038 118.366,22.8359932 118.366,24.204 L118.366,30 L115.846,30 L115.846,24.492 C115.846,23.699996 115.642002,23.0850022 115.234,22.647 C114.825998,22.2089978 114.268004,21.99 113.56,21.99 C112.839996,21.99 112.264002,22.2239977 111.832,22.692 C111.399998,23.1600023 111.184,23.8319956 111.184,24.708 L111.184,30 L108.646,30 L108.646,20.028 L111.184,20.028 L111.184,22.026 C111.448001,21.3539966 111.882997,20.8290019 112.489,20.451 C113.095003,20.0729981 113.793996,19.884 114.586,19.884 Z M125.726,27.822 L125.726,30 L124.394,30 C123.277994,30 122.423003,29.7300027 121.829,29.19 C121.234997,28.6499973 120.938,27.7500063 120.938,26.49 L120.938,22.17 L119.552,22.17 L119.552,20.028 L120.938,20.028 L120.938,17.562 L123.476,17.562 L123.476,20.028 L125.708,20.028 L125.708,22.17 L123.476,22.17 L123.476,26.526 C123.476,27.0060024 123.571999,27.341999 123.764,27.534 C123.956001,27.726001 124.279998,27.822 124.736,27.822 L125.726,27.822 Z M130.782,19.902 C131.994006,19.902 132.965996,20.2079969 133.698,20.82 C134.430004,21.4320031 134.885999,22.2479949 135.066,23.268 L132.69,23.268 C132.593999,22.7879976 132.378002,22.4040014 132.042,22.116 C131.705998,21.8279986 131.268003,21.684 130.728,21.684 C130.295998,21.684 129.960001,21.785999 129.72,21.99 C129.479999,22.194001 129.36,22.4699983 129.36,22.818 C129.36,23.0940014 129.455999,23.3159992 129.648,23.484 C129.840001,23.6520008 130.079999,23.7839995 130.368,23.88 C130.656001,23.9760005 131.069997,24.0899993 131.61,24.222 C132.366004,24.3900008 132.980998,24.5669991 133.455,24.753 C133.929002,24.9390009 134.336998,25.232998 134.679,25.635 C135.021002,26.037002 135.192,26.5799966 135.192,27.264 C135.192,28.1160043 134.859003,28.8059974 134.193,29.334 C133.526997,29.8620026 132.630006,30.126 131.502,30.126 C130.205993,30.126 129.168004,29.8350029 128.388,29.253 C127.607996,28.6709971 127.134001,27.8400054 126.966,26.76 L129.396,26.76 C129.456,27.2520025 129.671998,27.6389986 130.044,27.921 C130.416002,28.2030014 130.901997,28.344 131.502,28.344 C131.934002,28.344 132.263999,28.2390011 132.492,28.029 C132.720001,27.818999 132.834,27.5460017 132.834,27.21 C132.834,26.9219986 132.735001,26.6880009 132.537,26.508 C132.338999,26.3279991 132.093001,26.1900005 131.799,26.094 C131.504999,25.9979995 131.088003,25.8840007 130.548,25.752 C129.803996,25.5839992 129.201002,25.4130009 128.739,25.239 C128.276998,25.0649991 127.881002,24.7860019 127.551,24.402 C127.220998,24.0179981 127.056,23.4900034 127.056,22.818 C127.056,21.9539957 127.385997,21.2520027 128.046,20.712 C128.706003,20.1719973 129.617994,19.902 130.782,19.902 Z" id="Elements" fill="#222222"></path>
                </g>
            </g>
        </g>
    </g>
</svg>